<?xml version="1.0" encoding="UTF-8" standalone="no"?>
<!-- Created with Inkscape (http://www.inkscape.org/) -->

<svg
   width="487.22031mm"
   height="91.761841mm"
   viewBox="0 0 487.22031 91.761841"
   version="1.1"
   id="svg1"
   inkscape:version="1.3.2 (091e20e, 2023-11-25, custom)"
   sodipodi:docname="uActivityPub - inkscape.svg"
   xmlns:inkscape="http://www.inkscape.org/namespaces/inkscape"
   xmlns:sodipodi="http://sodipodi.sourceforge.net/DTD/sodipodi-0.dtd"
   xmlns="http://www.w3.org/2000/svg"
   xmlns:svg="http://www.w3.org/2000/svg">
  <sodipodi:namedview
     id="namedview1"
     pagecolor="#ffffff"
     bordercolor="#000000"
     borderopacity="0.25"
     inkscape:showpageshadow="2"
     inkscape:pageopacity="0.0"
     inkscape:pagecheckerboard="0"
     inkscape:deskcolor="#d1d1d1"
     inkscape:document-units="mm"
     showguides="true"
     inkscape:zoom="0.74394518"
     inkscape:cx="-13.441851"
     inkscape:cy="395.8625"
     inkscape:window-width="3440"
     inkscape:window-height="1377"
     inkscape:window-x="-8"
     inkscape:window-y="1875"
     inkscape:window-maximized="1"
     inkscape:current-layer="g2">
    <sodipodi:guide
       position="82.517746,225.5882"
       orientation="0,-1"
       id="guide2"
       inkscape:locked="false" />
    <sodipodi:guide
       position="18.279869,263.5148"
       orientation="1,0"
       id="guide3"
       inkscape:locked="false" />
    <sodipodi:guide
       position="28.181959,258.76809"
       orientation="1,0"
       id="guide4"
       inkscape:locked="false" />
  </sodipodi:namedview>
  <defs
     id="defs1" />
  <g
     inkscape:label="Layer 1"
     inkscape:groupmode="layer"
     id="layer1"
     transform="translate(130.55077,-58.730028)">
    <g
       id="g2"
       transform="translate(89.422794,-32.011178)">
      <path
         style="fill:#04c2fb"
         d="m -201.31251,161.77127 c -3.67298,-0.7499 -8.34813,-3.20242 -11.2813,-5.91801 -3.02634,-2.80187 -5.48422,-7.06669 -6.6053,-11.46129 -0.4825,-1.89138 -0.5855,-3.22153 -0.6944,-8.96766 -0.16054,-8.47061 -0.61321,-7.76868 5.09119,-7.89466 5.28664,-0.11675 5.0099,-0.36705 5.24364,4.74269 0.096,2.09739 0.17488,5.02321 0.17541,6.50184 0.001,3.09707 0.52844,5.16922 1.83267,7.2017 1.23165,1.91935 3.48968,3.91709 5.50823,4.87326 1.72135,0.81538 1.91184,0.84662 5.09549,0.83555 3.80683,-0.0132 5.04299,-0.38702 7.79968,-2.35842 2.59436,-1.85531 4.27346,-4.4028 4.90629,-7.44373 0.15653,-0.75219 0.33758,-8.37012 0.43017,-18.09989 0.10001,-10.51043 0.25855,-16.92487 0.42343,-17.13177 0.192,-0.24094 1.46713,-0.33073 4.69668,-0.33073 3.80268,0 4.48476,0.0623 4.79625,0.43794 0.29967,0.36142 0.36239,3.44756 0.35893,17.66094 -0.004,16.88273 -0.0157,17.26856 -0.58827,19.52934 -1.24216,4.90491 -3.32887,8.49389 -6.93227,11.923 -3.33073,3.16962 -7.61533,5.27928 -12.18672,6.00052 -2.24758,0.35461 -6.07378,0.3069 -8.0698,-0.10062 z"
         id="path4-5"
         inkscape:export-filename="path4-5.svg"
         inkscape:export-xdpi="96"
         inkscape:export-ydpi="96" />
      <path
         style="fill:#102555"
         d="m -198.94437,143.51882 c -1.07756,-0.46936 -2.40978,-1.80471 -2.60416,-3.07326 -0.24519,-1.60012 -0.12853,-22.74785 -0.12659,-23.49149 8.7e-4,-0.33351 2.04593,-0.18868 4.65311,-0.18695 3.6369,0.002 5.2319,-0.19452 5.23319,0.47043 l 10e-4,0.67794 v 11.3341 c 0,11.33237 -9e-5,11.33427 -0.61083,12.47846 -0.43708,0.81885 -0.92628,1.28758 -1.71979,1.64784 -1.29934,0.5899 -3.64087,0.65925 -4.82624,0.14293 z"
         id="path2-8"
         sodipodi:nodetypes="ssssscsssss" />
    </g>
    <text
       xml:space="preserve"
       style="font-style:normal;font-variant:normal;font-weight:bold;font-stretch:normal;font-size:95.25px;font-family:'Roboto Condensed';-inkscape-font-specification:'Roboto Condensed,  Bold';letter-spacing:0.264583px;word-spacing:0.264583px;fill:#000000;stroke-width:0.264583"
       x="-83.577507"
       y="130.16753"
       id="text2"><tspan
         sodipodi:role="line"
         id="tspan2"
         style="font-size:95.25px;letter-spacing:0.264583px;word-spacing:0.264583px;fill:#000000;stroke-width:0.264583"
         x="-83.577507"
         y="130.16753">ActivityPub</tspan></text>
  </g>
</svg>
